<svg xmlns="http://www.w3.org/2000/svg" fill="none" viewBox="0 0 119 28"><g fill="#000" fill-rule="evenodd" clip-path="url(#blog-logo_svg__a)" clip-rule="evenodd"><path d="M21.38 9.952a.699.699 0 0 1-.975-.066.678.678 0 0 1 .067-.962l2.846-2.382a.699.699 0 0 1 .975.066c.25.283.22.716-.066.962l-2.846 2.382Zm-.113 4.583c.075-.482.32-.922.693-1.242.26-.224 1.263-1.077 1.287-1.098 1.606-1.383 4.325-5.808 5.928-8.55.459-.783-.326-1.702-1.185-1.389-3.016 1.097-7.903 3.001-9.523 4.362l-1.29 1.094c-.376.316-.854.49-1.348.493-4.35.05-5.634 1.731-5.634 1.731l.566.582s2.525-.36 3.953 1.277l-1.204 1.017.726.83-.837.712 1.563 1.85.163-.199-.722-1.945 1.807 2.05.424-.361-.532-2.265s.904.966 1.44 1.577c1.429 1.635.656 4.08.656 4.08l.5.638s1.874-1.005 2.569-5.244Z"/><path d="M13.738 24.657a11.958 11.958 0 0 1-10.32-4.876c-.118-.16.079-.356.243-.246 2.895 1.97 7.493 1.382 10.463-3.957C-.855 19.694 1.004.98 13.082 1.15c4.229.06 7.947 2.187 10.063 5.474l.04-.035a.714.714 0 0 1 .88-.049.687.687 0 0 1 .28.519.677.677 0 0 1-.23.54l-.283.241a11.58 11.58 0 0 1 1.164 5.35c-.144 6.101-5.084 11.138-11.258 11.467M13.082 0C5.868 0 0 5.792 0 12.913c0 7.12 5.868 12.912 13.082 12.912 7.213 0 13.08-5.793 13.08-12.912 0-7.12-5.867-12.914-13.08-12.914"/></g><path fill="#000" d="M37.372 11V1.76h6.692v1.288H38.87v2.66h4.06v1.26h-4.06v2.744h5.39V11h-6.888ZM47.518.85v8.19c0 .345.061.583.182.714.122.13.322.196.602.196.168 0 .308-.01.42-.028.122-.028.271-.075.448-.14l-.168 1.12c-.158.075-.34.13-.546.168a2.77 2.77 0 0 1-.616.07c-.625 0-1.087-.159-1.386-.476-.289-.327-.434-.826-.434-1.498V.85h1.498Zm5.986 10.29c-.7 0-1.316-.145-1.848-.434A3.08 3.08 0 0 1 50.41 9.46c-.29-.55-.434-1.204-.434-1.96s.144-1.405.434-1.946c.298-.55.71-.97 1.232-1.26.522-.29 1.115-.434 1.778-.434.681 0 1.26.14 1.736.42.476.28.84.663 1.092 1.148.252.485.378 1.036.378 1.652 0 .168-.005.327-.014.476-.01.15-.024.28-.042.392h-5.628V6.8h4.97l-.742.224c0-.635-.159-1.12-.476-1.456-.318-.345-.752-.518-1.302-.518a1.94 1.94 0 0 0-1.05.28c-.299.187-.528.467-.686.84-.159.364-.238.812-.238 1.344 0 .523.084.966.252 1.33.168.364.406.64.714.826.308.187.672.28 1.092.28.466 0 .844-.089 1.134-.266.29-.177.518-.425.686-.742l1.19.56c-.168.336-.397.63-.686.882-.28.243-.616.43-1.008.56a4.05 4.05 0 0 1-1.288.196ZM62.918 4h1.568L61.7 11h-1.638l-2.8-7H58.9l1.988 5.698L62.918 4Zm5.884 7.14c-.7 0-1.316-.145-1.848-.434A3.08 3.08 0 0 1 65.71 9.46c-.29-.55-.434-1.204-.434-1.96s.144-1.405.433-1.946c.3-.55.71-.97 1.233-1.26.522-.29 1.115-.434 1.778-.434.68 0 1.26.14 1.736.42.475.28.84.663 1.091 1.148.252.485.378 1.036.378 1.652 0 .168-.004.327-.014.476-.009.15-.023.28-.041.392H66.24V6.8h4.97l-.741.224c0-.635-.16-1.12-.476-1.456-.318-.345-.752-.518-1.302-.518a1.94 1.94 0 0 0-1.05.28c-.3.187-.528.467-.687.84-.158.364-.237.812-.237 1.344 0 .523.084.966.252 1.33.168.364.406.64.714.826.307.187.671.28 1.091.28.467 0 .845-.089 1.135-.266.289-.177.517-.425.685-.742l1.19.56c-.168.336-.396.63-.686.882-.28.243-.615.43-1.007.56a4.05 4.05 0 0 1-1.288.196Zm5.014-.14V4h1.33l.098 1.82-.196-.196c.131-.401.318-.733.56-.994.252-.27.546-.467.882-.588a3.27 3.27 0 0 1 1.092-.182c.495 0 .938.098 1.33.294.402.187.719.471.952.854.234.383.35.868.35 1.456V11h-1.498V6.926c0-.69-.144-1.167-.434-1.428-.28-.27-.634-.406-1.064-.406a1.93 1.93 0 0 0-.896.224c-.289.14-.532.369-.728.686-.186.317-.28.742-.28 1.274V11h-1.498Zm14.929-1.288h5.096V11h-6.594V1.76h1.498v7.952Zm10.719-3.206c0-.467-.13-.826-.392-1.078-.252-.261-.602-.392-1.05-.392-.42 0-.78.098-1.078.294-.299.196-.518.513-.658.952l-1.26-.532a2.519 2.519 0 0 1 1.036-1.372c.523-.345 1.195-.518 2.016-.518.56 0 1.054.093 1.484.28.43.177.765.448 1.008.812.252.364.378.83.378 1.4v3.122c0 .345.173.518.518.518.168 0 .331-.023.49-.07l-.084 1.036c-.215.103-.485.154-.812.154-.299 0-.569-.051-.812-.154a1.359 1.359 0 0 1-.56-.49c-.13-.224-.196-.5-.196-.826v-.098l.308-.014a1.747 1.747 0 0 1-.518.91 2.69 2.69 0 0 1-.91.532 3.385 3.385 0 0 1-1.05.168c-.439 0-.835-.07-1.19-.21-.346-.14-.62-.35-.826-.63-.196-.29-.294-.644-.294-1.064 0-.523.168-.952.504-1.288.345-.336.83-.565 1.456-.686l2.716-.532-.014 1.05-1.974.406c-.392.075-.686.182-.882.322-.196.14-.294.345-.294.616a.77.77 0 0 0 .294.63c.205.15.476.224.812.224.233 0 .457-.028.672-.084.224-.056.424-.145.602-.266a1.29 1.29 0 0 0 .406-.49 1.61 1.61 0 0 0 .154-.728V6.506Zm7.69 4.634c-.41 0-.788-.08-1.134-.238a2.476 2.476 0 0 1-.854-.658 2.938 2.938 0 0 1-.518-.966l.182-.238-.112 1.96h-1.316V.85h1.498v4.914l-.168-.238c.178-.485.481-.882.91-1.19.43-.317.948-.476 1.554-.476.56 0 1.074.145 1.54.434.476.29.85.705 1.12 1.246.271.541.406 1.2.406 1.974 0 .756-.14 1.405-.42 1.946-.27.541-.644.957-1.12 1.246-.466.29-.989.434-1.568.434Zm-.322-1.204c.607 0 1.078-.215 1.414-.644.346-.439.518-1.036.518-1.792s-.168-1.349-.504-1.778c-.336-.43-.807-.644-1.414-.644-.392 0-.732.103-1.022.308a1.995 1.995 0 0 0-.686.84c-.158.364-.238.798-.238 1.302 0 .495.08.924.238 1.288.159.355.383.63.672.826.299.196.64.294 1.022.294Zm8.008 1.204c-.7 0-1.34-.135-1.918-.406a3.315 3.315 0 0 1-1.372-1.148l1.036-.896c.205.383.499.69.882.924.392.224.858.336 1.4.336.429 0 .77-.075 1.022-.224.252-.15.378-.36.378-.63a.658.658 0 0 0-.182-.462c-.112-.14-.332-.247-.658-.322l-1.47-.308c-.747-.15-1.279-.387-1.596-.714-.318-.336-.476-.76-.476-1.274 0-.383.112-.737.336-1.064.224-.327.55-.588.98-.784.438-.205.961-.308 1.568-.308.7 0 1.297.126 1.792.378.494.243.872.593 1.134 1.05l-1.036.868a1.736 1.736 0 0 0-.784-.826 2.24 2.24 0 0 0-1.078-.28c-.299 0-.556.037-.77.112a1.106 1.106 0 0 0-.49.308.687.687 0 0 0-.168.462c0 .187.07.35.21.49.14.14.392.247.756.322l1.596.336c.672.13 1.143.355 1.414.672.28.308.42.686.42 1.134 0 .448-.117.845-.35 1.19-.234.336-.57.597-1.008.784-.439.187-.962.28-1.568.28ZM39.43 22.138h4.634V24h-7.042v-9.24h2.408v7.378Zm9.18 2.002c-.775 0-1.447-.145-2.016-.434a3.105 3.105 0 0 1-1.302-1.246c-.308-.541-.462-1.195-.462-1.96 0-.765.154-1.419.462-1.96a3.126 3.126 0 0 1 1.288-1.246c.56-.29 1.2-.434 1.918-.434.737 0 1.363.145 1.876.434.523.28.92.672 1.19 1.176.27.495.406 1.064.406 1.708 0 .168-.005.336-.014.504-.01.168-.024.308-.042.42H46.37v-1.274h4.494l-1.134.434c0-.56-.103-.99-.308-1.288-.196-.299-.504-.448-.924-.448-.299 0-.555.07-.77.21-.206.14-.364.36-.476.658-.103.299-.154.681-.154 1.148 0 .457.06.83.182 1.12.121.28.294.485.518.616.224.121.494.182.812.182.355 0 .635-.07.84-.21a1.24 1.24 0 0 0 .476-.588l1.904.63c-.13.401-.36.742-.686 1.022-.317.27-.7.476-1.148.616-.439.14-.9.21-1.386.21Zm13.191 0c-.457 0-.863-.103-1.218-.308a2.532 2.532 0 0 1-.854-.84 3.182 3.182 0 0 1-.434-1.232l.224-.294L59.393 24h-2.086v-9.968h2.38v5.166l-.224-.336c.13-.579.397-1.055.798-1.428.401-.383.943-.574 1.624-.574a2.48 2.48 0 0 1 1.442.434c.43.29.76.71.994 1.26.243.541.364 1.2.364 1.974 0 .756-.121 1.405-.364 1.946-.242.541-.578.957-1.008 1.246-.43.28-.933.42-1.512.42Zm-.826-1.75c.41 0 .733-.15.966-.448.233-.308.35-.789.35-1.442 0-.653-.116-1.13-.35-1.428-.233-.308-.555-.462-.966-.462-.27 0-.504.08-.7.238-.186.15-.331.364-.434.644-.102.28-.154.62-.154 1.022 0 .401.052.742.154 1.022.103.28.252.495.448.644.196.14.425.21.686.21Zm7.461-8.358v7.588c0 .308.052.527.154.658.103.13.276.196.519.196.14 0 .256-.01.35-.028.093-.019.205-.047.335-.084l-.153 1.428a2.306 2.306 0 0 1-.659.252c-.27.065-.536.098-.797.098-.747 0-1.288-.173-1.624-.518-.337-.345-.505-.91-.505-1.694v-7.896h2.38Zm5.56 2.828c.738 0 1.382.145 1.933.434.56.28.993.695 1.302 1.246.317.541.476 1.195.476 1.96 0 .765-.16 1.423-.476 1.974a3.105 3.105 0 0 1-1.302 1.246c-.551.28-1.195.42-1.933.42-.718 0-1.358-.14-1.917-.42a3.195 3.195 0 0 1-1.316-1.246c-.309-.55-.463-1.209-.463-1.974 0-.765.154-1.419.463-1.96.317-.55.755-.966 1.316-1.246.56-.29 1.199-.434 1.918-.434Zm0 1.694c-.27 0-.503.065-.7.196-.196.13-.345.34-.448.63-.102.29-.153.663-.153 1.12 0 .457.05.83.154 1.12.102.28.251.49.447.63.197.13.43.196.7.196.28 0 .519-.065.715-.196.195-.14.345-.35.448-.63.102-.29.153-.663.153-1.12 0-.457-.05-.83-.153-1.12-.103-.29-.253-.5-.449-.63a1.258 1.258 0 0 0-.713-.196Zm11.73-3.43.196 1.596a.528.528 0 0 0-.168-.028 1.024 1.024 0 0 0-.168-.014c-.411 0-.719.103-.924.308a1.006 1.006 0 0 0-.294.742l-.84-.308c0-.383.07-.751.21-1.106.14-.355.354-.644.644-.868.298-.224.672-.336 1.12-.336h.098c.046 0 .088.005.126.014Zm-2.408 7.322c.812 0 1.432.173 1.862.518.438.336.658.821.658 1.456 0 .579-.159 1.06-.476 1.442-.318.383-.766.667-1.344.854-.57.196-1.246.294-2.03.294-1.27 0-2.184-.159-2.744-.476-.56-.317-.84-.747-.84-1.288 0-.392.158-.71.476-.952.317-.243.844-.373 1.582-.392l-.056.224c-.57-.075-.994-.243-1.274-.504s-.42-.616-.42-1.064c0-.448.177-.812.532-1.092.354-.28.826-.434 1.414-.462l.868.406h-.224c-.364.019-.621.08-.77.182-.15.103-.224.229-.224.378 0 .159.065.28.196.364.13.075.326.112.588.112h2.226Zm-1.316 3.024c.448 0 .816-.033 1.106-.098.298-.056.522-.14.672-.252.149-.103.224-.224.224-.364a.412.412 0 0 0-.154-.336c-.103-.075-.29-.112-.56-.112h-2.506a.655.655 0 0 0-.434.14.453.453 0 0 0-.154.35c0 .215.158.378.476.49.317.121.76.182 1.33.182Zm.084-8.61c.709 0 1.316.093 1.82.28.504.187.886.457 1.148.812.27.345.406.775.406 1.288 0 .504-.136.933-.406 1.288-.262.355-.644.625-1.148.812-.504.177-1.111.266-1.82.266-1.111 0-1.956-.205-2.534-.616-.57-.41-.854-.994-.854-1.75 0-.513.13-.943.392-1.288.27-.355.658-.625 1.162-.812.504-.187 1.115-.28 1.834-.28Zm0 1.358c-.308 0-.56.089-.756.266-.187.177-.28.43-.28.756 0 .317.093.565.28.742.196.177.448.266.756.266.298 0 .546-.089.742-.266.196-.177.294-.425.294-.742 0-.327-.098-.579-.294-.756a1.064 1.064 0 0 0-.742-.266Z"/><defs><clipPath id="blog-logo_svg__a"><path fill="#000" d="M0 0h30v26H0z"/></clipPath></defs></svg>