<svg xmlns="http://www.w3.org/2000/svg" fill="none" viewBox="0 0 24 24"><path fill="#000" d="M12 5a7 7 0 1 0 7 7 7.01 7.01 0 0 0-7-7m6.054 9.452-1.99.344c.227-.836.35-1.697.366-2.563h2.098a6.5 6.5 0 0 1-.474 2.22M5.472 12.233H7.57c.016.866.139 1.727.367 2.563l-1.991-.344a6.5 6.5 0 0 1-.474-2.219m.474-2.685 1.99-.344c-.227.836-.35 1.697-.366 2.563H5.472a6.5 6.5 0 0 1 .474-2.22m6.287-.802q1.26.016 2.502.229l.823.142c.253.861.39 1.752.405 2.65h-3.73zm2.581-.231a16.5 16.5 0 0 0-2.58-.235v-2.8c1.337.128 2.499 1.353 3.158 3.136zm-3.047-.235q-1.3.016-2.581.235l-.578.1c.659-1.783 1.821-3.008 3.159-3.136zm-2.501.695a16 16 0 0 1 2.5-.229v3.02h-3.73c.016-.897.153-1.788.406-2.65zm-1.23 3.258h3.73v3.02a16 16 0 0 1-2.5-.228l-.824-.142a10 10 0 0 1-.405-2.65m1.15 3.252c.853.146 1.716.225 2.58.237v2.8c-1.337-.13-2.499-1.354-3.158-3.136zm3.047.237a16.6 16.6 0 0 0 2.581-.237l.578-.1c-.659 1.783-1.821 3.008-3.159 3.136zm2.502-.697q-1.242.212-2.502.229v-3.02h3.73a10 10 0 0 1-.405 2.65zm1.695-3.258a10.5 10.5 0 0 0-.367-2.563l1.991.344a6.5 6.5 0 0 1 .474 2.219zm1.388-2.734-1.908-.329A6.43 6.43 0 0 0 14.053 5.8a6.56 6.56 0 0 1 3.765 3.234M9.947 5.8A6.43 6.43 0 0 0 8.09 8.704l-1.908.33a6.56 6.56 0 0 1 3.765-3.235m-3.765 9.168 1.908.329A6.43 6.43 0 0 0 9.947 18.2a6.56 6.56 0 0 1-3.765-3.234m7.871 3.234a6.43 6.43 0 0 0 1.857-2.905l1.908-.33a6.56 6.56 0 0 1-3.765 3.235"/></svg>