<svg xmlns="http://www.w3.org/2000/svg" viewBox="0 0 22 22"><path fill="#0084b1" d="M0 0h22v22H0z"/><path fill="#fff" d="M5.176 3.34a1.857 1.857 0 0 1 1.84 1.848c-.004 1.058-.883 1.859-1.852 1.835-.98.02-1.84-.8-1.84-1.843a1.85 1.85 0 0 1 1.852-1.84M6.25 18.656H4.09a.507.507 0 0 1-.508-.508v-9.21c0-.278.227-.504.508-.504h2.16c.277 0 .504.226.504.504v9.21a.506.506 0 0 1-.504.508m12.426-6.988a3.495 3.495 0 0 0-3.496-3.496h-.555a3.11 3.11 0 0 0-2.719 1.605q-.029-.005-.027-.004V8.645a.213.213 0 0 0-.211-.211H8.973a.21.21 0 0 0-.211.21v9.801a.21.21 0 0 0 .21.211h2.755c.113 0 .21-.093.21-.21V12.78c0-.976.778-1.789 1.758-1.8.5-.008.953.195 1.282.519.32.324.52.77.52 1.262v5.687a.21.21 0 0 0 .21.207l2.758.004c.117 0 .21-.098.21-.21Zm0 0"/></svg>