<svg xmlns="http://www.w3.org/2000/svg" id="tuto_svg__FlaconTest" viewBox="0 0 14 16"><defs><style>.tuto_svg__cls-2{stroke-width:0;fill:#fff}</style></defs><path d="M13.98 14.25c-.04-.27-.14-.54-.28-.79L9.05 5.55V1.54H4.96v4.01L.3 13.47c-.15.25-.24.52-.28.79-.13.8.49 1.54 1.32 1.75h11.33c.83-.21 1.44-.95 1.32-1.75Z" class="tuto_svg__cls-2"/><rect width="6.01" height="1.12" x="4" class="tuto_svg__cls-2" rx=".54" ry=".54"/><path d="M12.07 13.01 8.62 6.98H5.41l-3.45 6.03c-.47.83-.19 1.79.75 2.14 0 0 .2.07.27.08.57.12 3.21.12 3.94.11s3.47.03 4.14-.11c.07-.01.27-.08.27-.08.94-.35 1.23-1.31.75-2.14Z" style="fill:#f4c93c;stroke-width:0"/></svg>