<svg xmlns="http://www.w3.org/2000/svg" viewBox="0 0 22 22"><path fill="#50abf1" d="M0 0h22v22H0z"/><path fill="#fff" d="M2.914 16.309a9.419 9.419 0 0 0 5.063 1.464c5.23 0 9.472-4.238 9.472-9.468 0-.133-.004-.262-.008-.39.188-.15 1.36-1.087 1.645-1.692 0 0-.95.398-1.879.488-.004 0-.004.004-.008.004l.004-.004c.086-.059 1.285-.875 1.45-1.844 0 0-.673.356-1.614.672-.156.05-.32.102-.488.149a3.323 3.323 0 0 0-5.664 3.023c-.254-.012-4.16-.23-6.82-3.45 0 0-1.587 2.169.949 4.4 0 0-.774-.032-1.438-.427 0 0-.242 2.625 2.625 3.297 0 0-.562.215-1.465.063 0 0 .504 2.12 3.055 2.32 0 0-2.016 1.82-4.879 1.395Zm0 0"/></svg>