<svg xmlns="http://www.w3.org/2000/svg" fill="none" viewBox="0 0 57 5"><path fill="#000" fill-rule="evenodd" d="M0 4.165 3.165 1z" clip-rule="evenodd"/><path stroke="#000" stroke-linecap="round" d="M0 4.165 3.165 1"/><path fill="#000" fill-rule="evenodd" d="M3.503 4.165 6.668 1z" clip-rule="evenodd"/><path stroke="#000" stroke-linecap="round" d="M3.503 4.165 6.668 1"/><path fill="#000" fill-rule="evenodd" d="M7.006 4.165 10.17 1z" clip-rule="evenodd"/><path stroke="#000" stroke-linecap="round" d="M7.006 4.165 10.17 1"/><path fill="#000" fill-rule="evenodd" d="M10.509 4.165 13.674 1z" clip-rule="evenodd"/><path stroke="#000" stroke-linecap="round" d="M10.509 4.165 13.674 1"/><path fill="#000" fill-rule="evenodd" d="M14.012 4.165 17.177 1z" clip-rule="evenodd"/><path stroke="#000" stroke-linecap="round" d="M14.012 4.165 17.177 1"/><path fill="#000" fill-rule="evenodd" d="M17.516 4.165 20.68 1z" clip-rule="evenodd"/><path stroke="#000" stroke-linecap="round" d="M17.516 4.165 20.68 1"/><path fill="#000" fill-rule="evenodd" d="M21.019 4.165 24.183 1z" clip-rule="evenodd"/><path stroke="#000" stroke-linecap="round" d="M21.019 4.165 24.183 1"/><path fill="#000" fill-rule="evenodd" d="M24.522 4.165 27.686 1z" clip-rule="evenodd"/><path stroke="#000" stroke-linecap="round" d="M24.522 4.165 27.686 1"/><path fill="#000" fill-rule="evenodd" d="M28.024 4.165 31.19 1z" clip-rule="evenodd"/><path stroke="#000" stroke-linecap="round" d="M28.024 4.165 31.19 1"/><path fill="#000" fill-rule="evenodd" d="M31.527 4.165 34.692 1z" clip-rule="evenodd"/><path stroke="#000" stroke-linecap="round" d="M31.527 4.165 34.692 1"/><path fill="#000" fill-rule="evenodd" d="M35.03 4.165 38.195 1z" clip-rule="evenodd"/><path stroke="#000" stroke-linecap="round" d="M35.03 4.165 38.195 1"/><path fill="#000" fill-rule="evenodd" d="M38.533 4.165 41.698 1z" clip-rule="evenodd"/><path stroke="#000" stroke-linecap="round" d="M38.533 4.165 41.698 1"/><path fill="#000" fill-rule="evenodd" d="M42.036 4.165 45.201 1z" clip-rule="evenodd"/><path stroke="#000" stroke-linecap="round" d="M42.036 4.165 45.201 1"/><path fill="#000" fill-rule="evenodd" d="M45.54 4.165 48.703 1z" clip-rule="evenodd"/><path stroke="#000" stroke-linecap="round" d="M45.54 4.165 48.703 1"/><path fill="#000" fill-rule="evenodd" d="M49.043 4.165 52.208 1z" clip-rule="evenodd"/><path stroke="#000" stroke-linecap="round" d="M49.043 4.165 52.208 1"/><path fill="#000" fill-rule="evenodd" d="M52.546 4.165 55.71 1z" clip-rule="evenodd"/><path stroke="#000" stroke-linecap="round" d="M52.546 4.165 55.71 1"/></svg>