<svg width="119" height="28" viewBox="0 0 119 28" fill="none" xmlns="http://www.w3.org/2000/svg">
<g clip-path="url(#clip0_60_183)">
<path fill-rule="evenodd" clip-rule="evenodd" d="M21.3809 9.95222C21.2424 10.0709 21.0619 10.1305 20.879 10.1181C20.696 10.1056 20.5255 10.0221 20.4048 9.88578C20.285 9.74916 20.2249 9.57132 20.2375 9.39107C20.2501 9.21083 20.3345 9.04284 20.4721 8.92378L23.3185 6.54189C23.4569 6.42366 23.6371 6.36428 23.8197 6.37673C24.0023 6.38918 24.1725 6.47244 24.2931 6.60833C24.5426 6.89144 24.5126 7.32406 24.2273 7.57033L21.3809 9.95222ZM21.2668 14.5347C21.342 14.0529 21.5874 13.6129 21.9597 13.2925C22.2209 13.0686 23.2226 12.2164 23.2475 12.1947C24.8529 10.8124 27.5719 6.38661 29.1751 3.64578C29.6339 2.86217 28.8487 1.94278 27.9897 2.25622C24.9736 3.35256 20.0873 5.25706 18.4673 6.61844C18.4424 6.63794 17.4392 7.49017 17.1773 7.71189C16.8008 8.02769 16.3235 8.20236 15.8295 8.20517C11.4787 8.25572 10.1953 9.93633 10.1953 9.93633L10.7609 10.5184C10.7609 10.5184 13.286 10.1573 14.7136 11.7953L13.5099 12.8115L14.2358 13.6428L13.3995 14.3542L14.9624 16.2045L15.1248 16.0052L14.4026 14.0602L16.2099 16.1092L16.6343 15.7488L16.1024 13.4839C16.1024 13.4839 17.006 14.4502 17.5417 15.0612C18.9707 16.6963 18.198 19.1403 18.198 19.1403L18.6985 19.7788C18.6985 19.7788 20.5724 18.7742 21.2668 14.5347Z" fill="black"/>
<path fill-rule="evenodd" clip-rule="evenodd" d="M13.7378 24.6566C9.49683 24.8827 5.70146 22.9045 3.41707 19.7809C3.3 19.6213 3.49683 19.4249 3.66146 19.5354C6.5561 21.5049 11.1541 20.917 14.1241 15.5776C-0.854635 19.6935 1.0039 0.98075 13.0822 1.15119C17.3107 1.21042 21.0285 3.33808 23.1446 6.62492L23.1856 6.59025C23.4337 6.37792 23.8032 6.34758 24.0659 6.54114C24.1484 6.60175 24.2162 6.67971 24.2644 6.76938C24.3126 6.85905 24.34 6.95817 24.3446 7.05958C24.3492 7.16099 24.331 7.26215 24.2911 7.35572C24.2512 7.4493 24.1908 7.53296 24.1141 7.60064L23.8324 7.84114C24.643 9.50879 25.0417 11.3423 24.9959 13.1914C24.8517 19.292 19.912 24.3295 13.7378 24.6581M13.0822 -2.73658e-05C5.86756 -2.73658e-05 0 5.79219 0 12.9126C0 20.0322 5.86756 25.8245 13.0815 25.8245C20.2946 25.8245 26.1629 20.0322 26.1629 12.9126C26.1629 5.79292 20.2954 -0.000749588 13.0822 -0.000749588" fill="black"/>
</g>
<path d="M37.372 11V1.76H44.064V3.048H38.87V5.708H42.93V6.968H38.87V9.712H44.26V11H37.372ZM47.5184 0.85V9.04C47.5184 9.38533 47.5791 9.62333 47.7004 9.754C47.8217 9.88467 48.0224 9.95 48.3024 9.95C48.4704 9.95 48.6104 9.94067 48.7224 9.922C48.8437 9.894 48.9931 9.84733 49.1704 9.782L49.0024 10.902C48.8437 10.9767 48.6617 11.0327 48.4564 11.07C48.2511 11.1167 48.0457 11.14 47.8404 11.14C47.2151 11.14 46.7531 10.9813 46.4544 10.664C46.1651 10.3373 46.0204 9.838 46.0204 9.166V0.85H47.5184ZM53.5037 11.14C52.8037 11.14 52.1877 10.9953 51.6557 10.706C51.1237 10.4167 50.7084 10.0013 50.4097 9.46C50.1204 8.90933 49.9757 8.256 49.9757 7.5C49.9757 6.744 50.1204 6.09533 50.4097 5.554C50.7084 5.00333 51.1191 4.58333 51.6417 4.294C52.1644 4.00467 52.7571 3.86 53.4197 3.86C54.1011 3.86 54.6797 4 55.1557 4.28C55.6317 4.56 55.9957 4.94267 56.2477 5.428C56.4997 5.91333 56.6257 6.464 56.6257 7.08C56.6257 7.248 56.6211 7.40667 56.6117 7.556C56.6024 7.70533 56.5884 7.836 56.5697 7.948H50.9417V6.8H55.9117L55.1697 7.024C55.1697 6.38933 55.0111 5.904 54.6937 5.568C54.3764 5.22267 53.9424 5.05 53.3917 5.05C52.9904 5.05 52.6404 5.14333 52.3417 5.33C52.0431 5.51667 51.8144 5.79667 51.6557 6.17C51.4971 6.534 51.4177 6.982 51.4177 7.514C51.4177 8.03667 51.5017 8.48 51.6697 8.844C51.8377 9.208 52.0757 9.48333 52.3837 9.67C52.6917 9.85667 53.0557 9.95 53.4757 9.95C53.9424 9.95 54.3204 9.86133 54.6097 9.684C54.8991 9.50667 55.1277 9.25933 55.2957 8.942L56.4857 9.502C56.3177 9.838 56.0891 10.132 55.7997 10.384C55.5197 10.6267 55.1837 10.8133 54.7917 10.944C54.3997 11.0747 53.9704 11.14 53.5037 11.14ZM62.9184 4H64.4864L61.7004 11H60.0624L57.2624 4H58.9004L60.8884 9.698L62.9184 4ZM68.8025 11.14C68.1025 11.14 67.4865 10.9953 66.9545 10.706C66.4225 10.4167 66.0072 10.0013 65.7085 9.46C65.4192 8.90933 65.2745 8.256 65.2745 7.5C65.2745 6.744 65.4192 6.09533 65.7085 5.554C66.0072 5.00333 66.4179 4.58333 66.9405 4.294C67.4632 4.00467 68.0559 3.86 68.7185 3.86C69.3999 3.86 69.9785 4 70.4545 4.28C70.9305 4.56 71.2945 4.94267 71.5465 5.428C71.7985 5.91333 71.9245 6.464 71.9245 7.08C71.9245 7.248 71.9199 7.40667 71.9105 7.556C71.9012 7.70533 71.8872 7.836 71.8685 7.948H66.2405V6.8H71.2105L70.4685 7.024C70.4685 6.38933 70.3099 5.904 69.9925 5.568C69.6752 5.22267 69.2412 5.05 68.6905 5.05C68.2892 5.05 67.9392 5.14333 67.6405 5.33C67.3419 5.51667 67.1132 5.79667 66.9545 6.17C66.7959 6.534 66.7165 6.982 66.7165 7.514C66.7165 8.03667 66.8005 8.48 66.9685 8.844C67.1365 9.208 67.3745 9.48333 67.6825 9.67C67.9905 9.85667 68.3545 9.95 68.7745 9.95C69.2412 9.95 69.6192 9.86133 69.9085 9.684C70.1979 9.50667 70.4265 9.25933 70.5945 8.942L71.7845 9.502C71.6165 9.838 71.3879 10.132 71.0985 10.384C70.8185 10.6267 70.4825 10.8133 70.0905 10.944C69.6985 11.0747 69.2692 11.14 68.8025 11.14ZM73.8163 11V4H75.1463L75.2443 5.82L75.0483 5.624C75.179 5.22267 75.3656 4.89133 75.6083 4.63C75.8603 4.35933 76.1543 4.16333 76.4903 4.042C76.8356 3.92067 77.1996 3.86 77.5823 3.86C78.077 3.86 78.5203 3.958 78.9123 4.154C79.3136 4.34067 79.631 4.62533 79.8643 5.008C80.0976 5.39067 80.2143 5.876 80.2143 6.464V11H78.7163V6.926C78.7163 6.23533 78.5716 5.75933 78.2823 5.498C78.0023 5.22733 77.6476 5.092 77.2183 5.092C76.9103 5.092 76.6116 5.16667 76.3223 5.316C76.033 5.456 75.7903 5.68467 75.5943 6.002C75.4076 6.31933 75.3143 6.744 75.3143 7.276V11H73.8163ZM88.745 9.712H93.841V11H87.247V1.76H88.745V9.712ZM99.4639 6.506C99.4639 6.03933 99.3332 5.68 99.0719 5.428C98.8199 5.16667 98.4699 5.036 98.0219 5.036C97.6019 5.036 97.2425 5.134 96.9439 5.33C96.6452 5.526 96.4259 5.84333 96.2859 6.282L95.0259 5.75C95.2032 5.18067 95.5485 4.72333 96.0619 4.378C96.5845 4.03267 97.2565 3.86 98.0779 3.86C98.6379 3.86 99.1325 3.95333 99.5619 4.14C99.9912 4.31733 100.327 4.588 100.57 4.952C100.822 5.316 100.948 5.78267 100.948 6.352V9.474C100.948 9.81933 101.121 9.992 101.466 9.992C101.634 9.992 101.797 9.96867 101.956 9.922L101.872 10.958C101.657 11.0607 101.387 11.112 101.06 11.112C100.761 11.112 100.491 11.0607 100.248 10.958C100.015 10.846 99.8279 10.6827 99.6879 10.468C99.5572 10.244 99.4919 9.96867 99.4919 9.642V9.544L99.7999 9.53C99.7159 9.894 99.5432 10.1973 99.2819 10.44C99.0205 10.6733 98.7172 10.8507 98.3719 10.972C98.0265 11.084 97.6765 11.14 97.3219 11.14C96.8832 11.14 96.4865 11.07 96.1319 10.93C95.7865 10.79 95.5112 10.58 95.3059 10.3C95.1099 10.0107 95.0119 9.656 95.0119 9.236C95.0119 8.71333 95.1799 8.284 95.5159 7.948C95.8612 7.612 96.3465 7.38333 96.9719 7.262L99.6879 6.73L99.6739 7.78L97.6999 8.186C97.3079 8.26067 97.0139 8.368 96.8179 8.508C96.6219 8.648 96.5239 8.85333 96.5239 9.124C96.5239 9.38533 96.6219 9.59533 96.8179 9.754C97.0232 9.90333 97.2939 9.978 97.6299 9.978C97.8632 9.978 98.0872 9.95 98.3019 9.894C98.5259 9.838 98.7265 9.74933 98.9039 9.628C99.0812 9.49733 99.2165 9.334 99.3099 9.138C99.4125 8.93267 99.4639 8.69 99.4639 8.41V6.506ZM107.154 11.14C106.744 11.14 106.366 11.0607 106.02 10.902C105.684 10.7433 105.4 10.524 105.166 10.244C104.933 9.95467 104.76 9.63267 104.648 9.278L104.83 9.04L104.718 11H103.402V0.85H104.9V5.764L104.732 5.526C104.91 5.04067 105.213 4.644 105.642 4.336C106.072 4.01867 106.59 3.86 107.196 3.86C107.756 3.86 108.27 4.00467 108.736 4.294C109.212 4.58333 109.586 4.99867 109.856 5.54C110.127 6.08133 110.262 6.73933 110.262 7.514C110.262 8.27 110.122 8.91867 109.842 9.46C109.572 10.0013 109.198 10.4167 108.722 10.706C108.256 10.9953 107.733 11.14 107.154 11.14ZM106.832 9.936C107.439 9.936 107.91 9.72133 108.246 9.292C108.592 8.85333 108.764 8.256 108.764 7.5C108.764 6.744 108.596 6.15133 108.26 5.722C107.924 5.29267 107.453 5.078 106.846 5.078C106.454 5.078 106.114 5.18067 105.824 5.386C105.535 5.582 105.306 5.862 105.138 6.226C104.98 6.59 104.9 7.024 104.9 7.528C104.9 8.02267 104.98 8.452 105.138 8.816C105.297 9.17067 105.521 9.446 105.81 9.642C106.109 9.838 106.45 9.936 106.832 9.936ZM114.84 11.14C114.14 11.14 113.5 11.0047 112.922 10.734C112.343 10.4633 111.886 10.0807 111.55 9.586L112.586 8.69C112.791 9.07267 113.085 9.38067 113.468 9.614C113.86 9.838 114.326 9.95 114.868 9.95C115.297 9.95 115.638 9.87533 115.89 9.726C116.142 9.57667 116.268 9.36667 116.268 9.096C116.268 8.91867 116.207 8.76467 116.086 8.634C115.974 8.494 115.754 8.38667 115.428 8.312L113.958 8.004C113.211 7.85467 112.679 7.61667 112.362 7.29C112.044 6.954 111.886 6.52933 111.886 6.016C111.886 5.63333 111.998 5.27867 112.222 4.952C112.446 4.62533 112.772 4.364 113.202 4.168C113.64 3.96267 114.163 3.86 114.77 3.86C115.47 3.86 116.067 3.986 116.562 4.238C117.056 4.48067 117.434 4.83067 117.696 5.288L116.66 6.156C116.482 5.78267 116.221 5.50733 115.876 5.33C115.53 5.14333 115.171 5.05 114.798 5.05C114.499 5.05 114.242 5.08733 114.028 5.162C113.813 5.23667 113.65 5.33933 113.538 5.47C113.426 5.60067 113.37 5.75467 113.37 5.932C113.37 6.11867 113.44 6.282 113.58 6.422C113.72 6.562 113.972 6.66933 114.336 6.744L115.932 7.08C116.604 7.21067 117.075 7.43467 117.346 7.752C117.626 8.06 117.766 8.438 117.766 8.886C117.766 9.334 117.649 9.73067 117.416 10.076C117.182 10.412 116.846 10.6733 116.408 10.86C115.969 11.0467 115.446 11.14 114.84 11.14ZM39.43 22.138H44.064V24H37.022V14.76H39.43V22.138ZM48.6098 24.14C47.8352 24.14 47.1632 23.9953 46.5938 23.706C46.0338 23.4167 45.5998 23.0013 45.2918 22.46C44.9838 21.9187 44.8298 21.2653 44.8298 20.5C44.8298 19.7347 44.9838 19.0813 45.2918 18.54C45.5998 17.9987 46.0292 17.5833 46.5798 17.294C47.1398 17.0047 47.7792 16.86 48.4978 16.86C49.2352 16.86 49.8605 17.0047 50.3738 17.294C50.8965 17.574 51.2932 17.966 51.5638 18.47C51.8345 18.9647 51.9698 19.534 51.9698 20.178C51.9698 20.346 51.9652 20.514 51.9558 20.682C51.9465 20.85 51.9325 20.99 51.9138 21.102H46.3698V19.828H50.8638L49.7298 20.262C49.7298 19.702 49.6272 19.2727 49.4218 18.974C49.2258 18.6753 48.9178 18.526 48.4978 18.526C48.1992 18.526 47.9425 18.596 47.7278 18.736C47.5225 18.876 47.3638 19.0953 47.2518 19.394C47.1492 19.6927 47.0978 20.0753 47.0978 20.542C47.0978 20.9993 47.1585 21.3727 47.2798 21.662C47.4012 21.942 47.5738 22.1473 47.7978 22.278C48.0218 22.3993 48.2925 22.46 48.6098 22.46C48.9645 22.46 49.2445 22.39 49.4498 22.25C49.6645 22.11 49.8232 21.914 49.9258 21.662L51.8298 22.292C51.6992 22.6933 51.4705 23.034 51.1438 23.314C50.8265 23.5847 50.4438 23.79 49.9958 23.93C49.5572 24.07 49.0952 24.14 48.6098 24.14ZM61.8011 24.14C61.3438 24.14 60.9378 24.0373 60.5831 23.832C60.2378 23.6267 59.9531 23.3467 59.7291 22.992C59.5051 22.628 59.3605 22.2173 59.2951 21.76L59.5191 21.466L59.3931 24H57.3071V14.032H59.6871V19.198L59.4631 18.862C59.5938 18.2833 59.8598 17.8073 60.2611 17.434C60.6625 17.0513 61.2038 16.86 61.8851 16.86C62.4265 16.86 62.9071 17.0047 63.3271 17.294C63.7565 17.5833 64.0878 18.0033 64.3211 18.554C64.5638 19.0953 64.6851 19.7533 64.6851 20.528C64.6851 21.284 64.5638 21.9327 64.3211 22.474C64.0785 23.0153 63.7425 23.4307 63.3131 23.72C62.8838 24 62.3798 24.14 61.8011 24.14ZM60.9751 22.39C61.3858 22.39 61.7078 22.2407 61.9411 21.942C62.1745 21.634 62.2911 21.1533 62.2911 20.5C62.2911 19.8467 62.1745 19.3707 61.9411 19.072C61.7078 18.764 61.3858 18.61 60.9751 18.61C60.7045 18.61 60.4711 18.6893 60.2751 18.848C60.0885 18.9973 59.9438 19.212 59.8411 19.492C59.7385 19.772 59.6871 20.1127 59.6871 20.514C59.6871 20.9153 59.7385 21.256 59.8411 21.536C59.9438 21.816 60.0931 22.0307 60.2891 22.18C60.4851 22.32 60.7138 22.39 60.9751 22.39ZM68.4365 14.032V21.62C68.4365 21.928 68.4878 22.1473 68.5905 22.278C68.6931 22.4087 68.8658 22.474 69.1085 22.474C69.2485 22.474 69.3651 22.4647 69.4585 22.446C69.5518 22.4273 69.6638 22.3993 69.7945 22.362L69.6405 23.79C69.4725 23.8927 69.2531 23.9767 68.9825 24.042C68.7118 24.1073 68.4458 24.14 68.1845 24.14C67.4378 24.14 66.8965 23.9673 66.5605 23.622C66.2245 23.2767 66.0565 22.712 66.0565 21.928V14.032H68.4365ZM73.9965 16.86C74.7339 16.86 75.3779 17.0047 75.9285 17.294C76.4885 17.574 76.9225 17.9893 77.2305 18.54C77.5479 19.0813 77.7065 19.7347 77.7065 20.5C77.7065 21.2653 77.5479 21.9233 77.2305 22.474C76.9225 23.0153 76.4885 23.4307 75.9285 23.72C75.3779 24 74.7339 24.14 73.9965 24.14C73.2779 24.14 72.6385 24 72.0785 23.72C71.5185 23.4307 71.0799 23.0153 70.7625 22.474C70.4545 21.9233 70.3005 21.2653 70.3005 20.5C70.3005 19.7347 70.4545 19.0813 70.7625 18.54C71.0799 17.9893 71.5185 17.574 72.0785 17.294C72.6385 17.0047 73.2779 16.86 73.9965 16.86ZM73.9965 18.554C73.7259 18.554 73.4925 18.6193 73.2965 18.75C73.1005 18.8807 72.9512 19.0907 72.8485 19.38C72.7459 19.6693 72.6945 20.0427 72.6945 20.5C72.6945 20.9573 72.7459 21.3307 72.8485 21.62C72.9512 21.9 73.1005 22.11 73.2965 22.25C73.4925 22.3807 73.7259 22.446 73.9965 22.446C74.2765 22.446 74.5145 22.3807 74.7105 22.25C74.9065 22.11 75.0559 21.9 75.1585 21.62C75.2612 21.3307 75.3125 20.9573 75.3125 20.5C75.3125 20.0427 75.2612 19.6693 75.1585 19.38C75.0559 19.0907 74.9065 18.8807 74.7105 18.75C74.5145 18.6193 74.2765 18.554 73.9965 18.554ZM85.7257 15.124L85.9217 16.72C85.8657 16.7013 85.8097 16.692 85.7537 16.692C85.6977 16.6827 85.6417 16.678 85.5857 16.678C85.175 16.678 84.867 16.7807 84.6617 16.986C84.4657 17.182 84.3677 17.4293 84.3677 17.728L83.5277 17.42C83.5277 17.0373 83.5977 16.6687 83.7377 16.314C83.8777 15.9593 84.0924 15.67 84.3817 15.446C84.6804 15.222 85.0537 15.11 85.5017 15.11C85.5297 15.11 85.5624 15.11 85.5997 15.11C85.6464 15.11 85.6884 15.1147 85.7257 15.124ZM83.3177 22.446C84.1297 22.446 84.7504 22.6187 85.1797 22.964C85.6184 23.3 85.8377 23.7853 85.8377 24.42C85.8377 24.9987 85.679 25.4793 85.3617 25.862C85.0444 26.2447 84.5964 26.5293 84.0177 26.716C83.4484 26.912 82.7717 27.01 81.9877 27.01C80.7184 27.01 79.8037 26.8513 79.2437 26.534C78.6837 26.2167 78.4037 25.7873 78.4037 25.246C78.4037 24.854 78.5624 24.5367 78.8797 24.294C79.197 24.0513 79.7244 23.9207 80.4617 23.902L80.4057 24.126C79.8364 24.0513 79.4117 23.8833 79.1317 23.622C78.8517 23.3607 78.7117 23.006 78.7117 22.558C78.7117 22.11 78.889 21.746 79.2437 21.466C79.5984 21.186 80.0697 21.032 80.6577 21.004L81.5257 21.41H81.3017C80.9377 21.4287 80.681 21.4893 80.5317 21.592C80.3824 21.6947 80.3077 21.8207 80.3077 21.97C80.3077 22.1287 80.373 22.25 80.5037 22.334C80.6344 22.4087 80.8304 22.446 81.0917 22.446H83.3177ZM82.0017 25.47C82.4497 25.47 82.8184 25.4373 83.1077 25.372C83.4064 25.316 83.6304 25.232 83.7797 25.12C83.929 25.0173 84.0037 24.896 84.0037 24.756C84.0037 24.616 83.9524 24.504 83.8497 24.42C83.747 24.3453 83.5604 24.308 83.2897 24.308H80.7837C80.6064 24.308 80.4617 24.3547 80.3497 24.448C80.247 24.5413 80.1957 24.658 80.1957 24.798C80.1957 25.0127 80.3544 25.176 80.6717 25.288C80.989 25.4093 81.4324 25.47 82.0017 25.47ZM82.0857 16.86C82.795 16.86 83.4017 16.9533 83.9057 17.14C84.4097 17.3267 84.7924 17.5973 85.0537 17.952C85.3244 18.2973 85.4597 18.7267 85.4597 19.24C85.4597 19.744 85.3244 20.1733 85.0537 20.528C84.7924 20.8827 84.4097 21.1533 83.9057 21.34C83.4017 21.5173 82.795 21.606 82.0857 21.606C80.975 21.606 80.1304 21.4007 79.5517 20.99C78.9824 20.5793 78.6977 19.996 78.6977 19.24C78.6977 18.7267 78.8284 18.2973 79.0897 17.952C79.3604 17.5973 79.7477 17.3267 80.2517 17.14C80.7557 16.9533 81.367 16.86 82.0857 16.86ZM82.0857 18.218C81.7777 18.218 81.5257 18.3067 81.3297 18.484C81.143 18.6613 81.0497 18.9133 81.0497 19.24C81.0497 19.5573 81.143 19.8047 81.3297 19.982C81.5257 20.1593 81.7777 20.248 82.0857 20.248C82.3844 20.248 82.6317 20.1593 82.8277 19.982C83.0237 19.8047 83.1217 19.5573 83.1217 19.24C83.1217 18.9133 83.0237 18.6613 82.8277 18.484C82.6317 18.3067 82.3844 18.218 82.0857 18.218Z" fill="black"/>
<defs>
<clipPath id="clip0_60_183">
<rect width="30" height="26" fill="black"/>
</clipPath>
</defs>
</svg>
