<svg xmlns="http://www.w3.org/2000/svg" viewBox="0 0 16 16"><path fill="currentColor" d="M8 0a8 8 0 1 0 8 8 8.01 8.01 0 0 0-8-8Zm6.919 10.803-2.275.392c.26-.955.4-1.939.418-2.928h2.398a7.42 7.42 0 0 1-.541 2.536ZM.54 8.267h2.398c.017.99.158 1.973.418 2.928l-2.275-.392A7.417 7.417 0 0 1 .54 8.267Zm.541-3.07 2.275-.392c-.26.955-.4 1.939-.418 2.928H.54c.03-.87.213-1.729.541-2.536Zm7.186-.915c.958.012 1.914.1 2.858.26l.942.163c.289.984.444 2.003.462 3.028H8.267V4.282Zm2.95-.265a18.902 18.902 0 0 0-2.95-.269v-3.2c1.528.147 2.856 1.547 3.609 3.584l-.66-.115Zm-3.484-.269c-.988.013-1.974.103-2.949.27l-.66.113C4.877 2.094 6.204.693 7.734.547v3.201Zm-2.858.795a18.34 18.34 0 0 1 2.858-.261v3.451H3.471c.018-1.025.173-2.044.462-3.028l.942-.162ZM3.47 8.267h4.262v3.451a18.35 18.35 0 0 1-2.858-.26l-.942-.163a11.446 11.446 0 0 1-.462-3.028Zm1.313 3.716c.974.167 1.96.257 2.95.27v3.2c-1.53-.147-2.857-1.547-3.61-3.584l.66.114Zm3.483.27a18.96 18.96 0 0 0 2.949-.27l.66-.114c-.753 2.037-2.08 3.438-3.61 3.584v-3.2Zm2.858-.796c-.944.162-1.9.25-2.858.261V8.267h4.262a11.444 11.444 0 0 1-.462 3.028l-.942.162Zm1.937-3.724a11.94 11.94 0 0 0-.418-2.928l2.275.392a7.42 7.42 0 0 1 .541 2.536h-2.398ZM14.65 4.61l-2.18-.377a7.353 7.353 0 0 0-2.122-3.32 7.502 7.502 0 0 1 4.302 3.697ZM5.653.913a7.353 7.353 0 0 0-2.121 3.32L1.35 4.61A7.502 7.502 0 0 1 5.653.913ZM1.351 11.39l2.18.377a7.354 7.354 0 0 0 2.122 3.32 7.502 7.502 0 0 1-4.302-3.697Zm8.996 3.697a7.353 7.353 0 0 0 2.121-3.32l2.181-.377a7.502 7.502 0 0 1-4.302 3.697Z"/></svg>
