<svg width="24" height="24" viewBox="0 0 24 24" fill="none" xmlns="http://www.w3.org/2000/svg">
    <path d="M12 5C8.13405 5 5 8.13405 5 12C5 15.866 8.13405 19 12 19C15.866 19 19 15.866 19 12C18.9957 8.13587 15.8641 5.00433 12 5ZM18.054 14.4523L16.0633 14.7958C16.2911 13.9601 16.4142 13.0993 16.4296 12.2333H18.5275C18.5012 12.9951 18.3409 13.7462 18.054 14.4523ZM5.47248 12.2333H7.57043C7.58581 13.0993 7.70885 13.9601 7.93672 14.7958L5.94598 14.4523C5.6591 13.7462 5.4988 12.9951 5.47248 12.2333ZM5.94598 9.54772L7.93672 9.20422C7.70885 10.0399 7.58581 10.9007 7.57043 11.7667H5.47248C5.4988 11.0049 5.6591 10.2538 5.94598 9.54772ZM12.2333 8.74644C13.0718 8.75715 13.9081 8.83348 14.7347 8.97487L15.5583 9.11694C15.8114 9.97804 15.9475 10.8692 15.9631 11.7667H12.2333V8.74644ZM14.8142 8.51493C13.9615 8.36921 13.0984 8.29048 12.2333 8.27977V5.47977C13.571 5.60828 14.733 6.83306 15.3915 8.61553L14.8142 8.51493ZM11.7667 8.27977C10.9016 8.29048 10.0388 8.36921 9.18599 8.51493L8.60846 8.61484C9.26699 6.83192 10.429 5.60669 11.7667 5.47874V8.27977ZM9.26551 8.97487C10.092 8.83348 10.9282 8.75715 11.7667 8.74644V11.7667H8.03687C8.05247 10.8692 8.18862 9.97804 8.44167 9.11694L9.26551 8.97487ZM8.03687 12.2333H11.7667V15.2536C10.9282 15.2429 10.0919 15.1665 9.26528 15.0251L8.44167 14.8831C8.18862 14.022 8.05247 13.1308 8.03687 12.2333ZM9.18576 15.4851C10.0385 15.631 10.9015 15.7101 11.7667 15.7215V18.5215C10.429 18.3929 9.26699 17.1681 8.60846 15.3856L9.18576 15.4851ZM12.2333 15.7215C13.0984 15.7101 13.9612 15.631 14.814 15.4851L15.3915 15.3852C14.733 17.1681 13.571 18.3933 12.2333 18.5213V15.7215ZM14.7345 15.0251C13.908 15.1665 13.0718 15.2429 12.2333 15.2536V12.2333H15.9631C15.9475 13.1308 15.8114 14.022 15.5583 14.8831L14.7345 15.0251ZM16.4296 11.7667C16.4142 10.9007 16.2911 10.0399 16.0633 9.20422L18.054 9.54772C18.3409 10.2538 18.5012 11.0049 18.5275 11.7667H16.4296ZM17.818 9.03343L15.9097 8.70417C15.5667 7.58501 14.9249 6.58058 14.0533 5.79912C15.6831 6.34303 17.0347 7.50412 17.818 9.03343ZM9.94671 5.79912C9.07513 6.58058 8.43335 7.58501 8.0903 8.70417L6.18205 9.03343C6.96533 7.50412 8.31691 6.34303 9.94671 5.79912ZM6.18205 14.9666L8.0903 15.2958C8.43335 16.415 9.07513 17.4194 9.94671 18.2009C8.31691 17.657 6.96533 16.4959 6.18205 14.9666ZM14.0533 18.2009C14.9249 17.4194 15.5667 16.415 15.9097 15.2958L17.818 14.9666C17.0347 16.4959 15.6831 17.657 14.0533 18.2009Z" fill="currentColor"/>
</svg>
