<svg width="24" height="24" viewBox="0 0 24 24" fill="none" xmlns="http://www.w3.org/2000/svg">
    <path d="M7.29173 18.9773C8.53882 18.9773 9.54978 17.9655 9.54978 16.7174C9.54978 15.4693 8.53882 14.4575 7.29173 14.4575C6.04465 14.4575 5.03369 15.4693 5.03369 16.7174C5.03369 17.9655 6.04465 18.9773 7.29173 18.9773Z" fill="black"/>
    <path d="M12.5644 17.87C12.5644 18.4915 13.0725 18.9999 13.6935 18.9999C14.3144 18.9999 14.8225 18.4915 14.8225 17.87C14.8225 13.079 10.9274 9.16943 6.12902 9.16943C5.50806 9.16943 5 9.67791 5 10.2994C5 10.9208 5.50806 11.4293 6.12902 11.4293C9.68544 11.4293 12.5644 14.322 12.5644 17.87Z" fill="black"/>
    <path d="M17.8708 19C18.4917 19 18.9998 18.4915 18.9998 17.8701C18.9998 10.774 13.2305 5 6.14025 5C5.51929 5 5.01123 5.50847 5.01123 6.12994C5.01123 6.75141 5.51929 7.25989 6.14025 7.25989C11.9886 7.25989 16.7418 12.0169 16.7418 17.8701C16.7418 18.4915 17.2385 19 17.8708 19Z" fill="black"/>
</svg>
