<svg width="24" height="24" viewBox="0 0 24 24" fill="none" xmlns="http://www.w3.org/2000/svg">
    <path d="M15.0057 13.805H14.3734L14.1492 13.5889C14.9337 12.6764 15.4059 11.4917 15.4059 10.203C15.4059 7.32933 13.0766 5 10.203 5C7.32933 5 5 7.32933 5 10.203C5 13.0766 7.32933 15.4059 10.203 15.4059C11.4917 15.4059 12.6764 14.9337 13.5889 14.1492L13.805 14.3734V15.0057L17.8073 19L19 17.8073L15.0057 13.805ZM10.203 13.805C8.20983 13.805 6.60091 12.1961 6.60091 10.203C6.60091 8.20983 8.20983 6.60091 10.203 6.60091C12.1961 6.60091 13.805 8.20983 13.805 10.203C13.805 12.1961 12.1961 13.805 10.203 13.805Z" fill="currentColor"/>
</svg>
