<?xml version="1.0" encoding="UTF-8"?><svg id="FlaconTest" xmlns="http://www.w3.org/2000/svg" viewBox="0 0 14 16"><defs><style>.cls-1{fill:#f4c93c;}.cls-1,.cls-2{stroke-width:0px;}.cls-2{fill:#fff;}</style></defs><path class="cls-2" d="m13.98,14.25c-.04-.27-.14-.54-.28-.79l-4.65-7.91V1.54h-4.09v4.01L.3,13.47c-.15.25-.24.52-.28.79-.13.8.49,1.54,1.32,1.75h11.33c.83-.21,1.44-.95,1.32-1.75Z"/><rect class="cls-2" x="4" y="0" width="6.01" height="1.12" rx=".54" ry=".54"/><path class="cls-1" d="m12.07,13.01l-3.45-6.03h-3.21l-3.45,6.03c-.47.83-.19,1.79.75,2.14,0,0,.2.07.27.08.57.12,3.21.12,3.94.11h0s3.47.03,4.14-.11c.07-.01.27-.08.27-.08.94-.35,1.23-1.31.75-2.14Z"/></svg>