<svg xmlns="http://www.w3.org/2000/svg" width="57" height="5" viewBox="0 0 57 5" fill="none">
  <path fill-rule="evenodd" clip-rule="evenodd" d="M0 4.16476L3.16476 1L0 4.16476Z" fill="currentColor"/>
  <path d="M0 4.16476L3.16476 1" stroke="currentColor" stroke-linecap="round"/>
  <path fill-rule="evenodd" clip-rule="evenodd" d="M3.50293 4.16476L6.66769 1L3.50293 4.16476Z" fill="currentColor"/>
  <path d="M3.50293 4.16476L6.66769 1" stroke="currentColor" stroke-linecap="round"/>
  <path fill-rule="evenodd" clip-rule="evenodd" d="M7.00586 4.16476L10.1706 1L7.00586 4.16476Z" fill="currentColor"/>
  <path d="M7.00586 4.16476L10.1706 1" stroke="currentColor" stroke-linecap="round"/>
  <path fill-rule="evenodd" clip-rule="evenodd" d="M10.5088 4.16476L13.6736 1L10.5088 4.16476Z" fill="currentColor"/>
  <path d="M10.5088 4.16476L13.6736 1" stroke="currentColor" stroke-linecap="round"/>
  <path fill-rule="evenodd" clip-rule="evenodd" d="M14.0117 4.16476L17.1765 1L14.0117 4.16476Z" fill="currentColor"/>
  <path d="M14.0117 4.16476L17.1765 1" stroke="currentColor" stroke-linecap="round"/>
  <path fill-rule="evenodd" clip-rule="evenodd" d="M17.5156 4.16476L20.6804 1L17.5156 4.16476Z" fill="currentColor"/>
  <path d="M17.5156 4.16476L20.6804 1" stroke="currentColor" stroke-linecap="round"/>
  <path fill-rule="evenodd" clip-rule="evenodd" d="M21.0186 4.16476L24.1833 1L21.0186 4.16476Z" fill="currentColor"/>
  <path d="M21.0186 4.16476L24.1833 1" stroke="currentColor" stroke-linecap="round"/>
  <path fill-rule="evenodd" clip-rule="evenodd" d="M24.5215 4.16476L27.6862 1L24.5215 4.16476Z" fill="currentColor"/>
  <path d="M24.5215 4.16476L27.6862 1" stroke="currentColor" stroke-linecap="round"/>
  <path fill-rule="evenodd" clip-rule="evenodd" d="M28.0244 4.16476L31.1892 1L28.0244 4.16476Z" fill="currentColor"/>
  <path d="M28.0244 4.16476L31.1892 1" stroke="currentColor" stroke-linecap="round"/>
  <path fill-rule="evenodd" clip-rule="evenodd" d="M31.5273 4.16476L34.6921 1L31.5273 4.16476Z" fill="currentColor"/>
  <path d="M31.5273 4.16476L34.6921 1" stroke="currentColor" stroke-linecap="round"/>
  <path fill-rule="evenodd" clip-rule="evenodd" d="M35.0303 4.16476L38.195 1L35.0303 4.16476Z" fill="currentColor"/>
  <path d="M35.0303 4.16476L38.195 1" stroke="currentColor" stroke-linecap="round"/>
  <path fill-rule="evenodd" clip-rule="evenodd" d="M38.5332 4.16476L41.698 1L38.5332 4.16476Z" fill="currentColor"/>
  <path d="M38.5332 4.16476L41.698 1" stroke="currentColor" stroke-linecap="round"/>
  <path fill-rule="evenodd" clip-rule="evenodd" d="M42.0361 4.16476L45.2009 1L42.0361 4.16476Z" fill="currentColor"/>
  <path d="M42.0361 4.16476L45.2009 1" stroke="currentColor" stroke-linecap="round"/>
  <path fill-rule="evenodd" clip-rule="evenodd" d="M45.5391 4.16476L48.7038 1L45.5391 4.16476Z" fill="currentColor"/>
  <path d="M45.5391 4.16476L48.7038 1" stroke="currentColor" stroke-linecap="round"/>
  <path fill-rule="evenodd" clip-rule="evenodd" d="M49.043 4.16476L52.2077 1L49.043 4.16476Z" fill="currentColor"/>
  <path d="M49.043 4.16476L52.2077 1" stroke="currentColor" stroke-linecap="round"/>
  <path fill-rule="evenodd" clip-rule="evenodd" d="M52.5459 4.16476L55.7107 1L52.5459 4.16476Z" fill="currentColor"/>
  <path d="M52.5459 4.16476L55.7107 1" stroke="currentColor" stroke-linecap="round"/>
</svg>
