<svg width="117" height="21" viewBox="0 0 117 21" fill="none" xmlns="http://www.w3.org/2000/svg">
<g clip-path="url(#clip0_60_204)">
<path fill-rule="evenodd" clip-rule="evenodd" d="M16.9563 8.03833C16.8455 8.13419 16.7011 8.18237 16.5547 8.17231C16.4084 8.16225 16.272 8.09477 16.1754 7.98467C16.0796 7.87432 16.0315 7.73068 16.0416 7.5851C16.0517 7.43952 16.1191 7.30383 16.2293 7.20767L18.5063 5.28383C18.6171 5.18834 18.7612 5.14038 18.9073 5.15044C19.0534 5.16049 19.1896 5.22774 19.2861 5.3375C19.4857 5.56617 19.4617 5.91558 19.2334 6.1145L16.9563 8.03833ZM16.865 11.7396C16.9252 11.3504 17.1215 10.995 17.4193 10.7363C17.6283 10.5554 18.4297 9.86708 18.4496 9.84958C19.7339 8.73308 21.9091 5.15842 23.1916 2.94467C23.5586 2.31175 22.9305 1.56917 22.2433 1.82233C19.8304 2.70783 15.9214 4.24608 14.6254 5.34567C14.6055 5.36142 13.8029 6.04975 13.5934 6.22883C13.2922 6.48391 12.9104 6.62498 12.5151 6.62725C9.03454 6.66808 8.00781 8.0255 8.00781 8.0255L8.4603 8.49567C8.4603 8.49567 10.4804 8.204 11.6224 9.527L10.6595 10.3477L11.2402 11.0192L10.5711 11.5938L11.8215 13.0883L11.9514 12.9272L11.3737 11.3563L12.8195 13.0113L13.159 12.7202L12.7335 10.8908C12.7335 10.8908 13.4564 11.6713 13.8849 12.1648C15.0281 13.4855 14.41 15.4595 14.41 15.4595L14.8103 15.9752C14.8103 15.9752 16.3095 15.1637 16.865 11.7396Z" fill="black"/>
<path fill-rule="evenodd" clip-rule="evenodd" d="M10.9902 19.9148C7.59746 20.0974 4.56117 18.4997 2.73366 15.9767C2.64 15.8478 2.79746 15.6892 2.92917 15.7784C5.24488 17.3692 8.92332 16.8943 11.2993 12.5817C-0.683708 15.9062 0.803122 0.792 10.4658 0.929667C13.8486 0.9775 16.8228 2.696 18.5157 5.35075L18.5485 5.32275C18.7469 5.15125 19.0425 5.12675 19.2527 5.28308C19.3187 5.33204 19.3729 5.39501 19.4115 5.46743C19.4501 5.53985 19.472 5.61992 19.4757 5.70183C19.4794 5.78373 19.4648 5.86544 19.4329 5.94102C19.401 6.0166 19.3526 6.08417 19.2913 6.13883L19.066 6.33308C19.7144 7.68004 20.0333 9.16093 19.9967 10.6544C19.8814 15.5818 15.9296 19.6506 10.9902 19.916M10.4658 -0.000166255C4.69405 -0.000166255 0 4.67817 0 10.4292C0 16.1797 4.69405 20.8581 10.4652 20.8581C16.2357 20.8581 20.9303 16.1797 20.9303 10.4292C20.9303 4.67875 16.2363 -0.000749588 10.4658 -0.000749588" fill="black"/>
</g>
<path d="M29.47 15V5.1H36.64V6.48H31.075V9.33H35.425V10.68H31.075V13.62H36.85V15H29.47ZM40.3411 4.125V12.9C40.3411 13.27 40.4061 13.525 40.5361 13.665C40.6661 13.805 40.8811 13.875 41.1811 13.875C41.3611 13.875 41.5111 13.865 41.6311 13.845C41.7611 13.815 41.9211 13.765 42.1111 13.695L41.9311 14.895C41.7611 14.975 41.5661 15.035 41.3461 15.075C41.1261 15.125 40.9061 15.15 40.6861 15.15C40.0161 15.15 39.5211 14.98 39.2011 14.64C38.8911 14.29 38.7361 13.755 38.7361 13.035V4.125H40.3411ZM46.754 15.15C46.004 15.15 45.344 14.995 44.774 14.685C44.204 14.375 43.759 13.93 43.439 13.35C43.129 12.76 42.974 12.06 42.974 11.25C42.974 10.44 43.129 9.745 43.439 9.165C43.759 8.575 44.199 8.125 44.759 7.815C45.319 7.505 45.954 7.35 46.664 7.35C47.394 7.35 48.014 7.5 48.524 7.8C49.034 8.1 49.424 8.51 49.694 9.03C49.964 9.55 50.099 10.14 50.099 10.8C50.099 10.98 50.094 11.15 50.084 11.31C50.074 11.47 50.059 11.61 50.039 11.73H44.009V10.5H49.334L48.539 10.74C48.539 10.06 48.369 9.54 48.029 9.18C47.689 8.81 47.224 8.625 46.634 8.625C46.204 8.625 45.829 8.725 45.509 8.925C45.189 9.125 44.944 9.425 44.774 9.825C44.604 10.215 44.519 10.695 44.519 11.265C44.519 11.825 44.609 12.3 44.789 12.69C44.969 13.08 45.224 13.375 45.554 13.575C45.884 13.775 46.274 13.875 46.724 13.875C47.224 13.875 47.629 13.78 47.939 13.59C48.249 13.4 48.494 13.135 48.674 12.795L49.949 13.395C49.769 13.755 49.524 14.07 49.214 14.34C48.914 14.6 48.554 14.8 48.134 14.94C47.714 15.08 47.254 15.15 46.754 15.15ZM56.8411 7.5H58.5211L55.5361 15H53.7811L50.7811 7.5H52.5361L54.6661 13.605L56.8411 7.5ZM63.1456 15.15C62.3956 15.15 61.7356 14.995 61.1656 14.685C60.5956 14.375 60.1506 13.93 59.8306 13.35C59.5206 12.76 59.3656 12.06 59.3656 11.25C59.3656 10.44 59.5206 9.745 59.8306 9.165C60.1506 8.575 60.5906 8.125 61.1506 7.815C61.7106 7.505 62.3456 7.35 63.0556 7.35C63.7856 7.35 64.4056 7.5 64.9156 7.8C65.4256 8.1 65.8156 8.51 66.0856 9.03C66.3556 9.55 66.4906 10.14 66.4906 10.8C66.4906 10.98 66.4856 11.15 66.4756 11.31C66.4656 11.47 66.4506 11.61 66.4306 11.73H60.4006V10.5H65.7256L64.9306 10.74C64.9306 10.06 64.7606 9.54 64.4206 9.18C64.0806 8.81 63.6156 8.625 63.0256 8.625C62.5956 8.625 62.2206 8.725 61.9006 8.925C61.5806 9.125 61.3356 9.425 61.1656 9.825C60.9956 10.215 60.9106 10.695 60.9106 11.265C60.9106 11.825 61.0006 12.3 61.1806 12.69C61.3606 13.08 61.6156 13.375 61.9456 13.575C62.2756 13.775 62.6656 13.875 63.1156 13.875C63.6156 13.875 64.0206 13.78 64.3306 13.59C64.6406 13.4 64.8856 13.135 65.0656 12.795L66.3406 13.395C66.1606 13.755 65.9156 14.07 65.6056 14.34C65.3056 14.6 64.9456 14.8 64.5256 14.94C64.1056 15.08 63.6456 15.15 63.1456 15.15ZM68.5175 15V7.5H69.9425L70.0475 9.45L69.8375 9.24C69.9775 8.81 70.1775 8.455 70.4375 8.175C70.7075 7.885 71.0225 7.675 71.3825 7.545C71.7525 7.415 72.1425 7.35 72.5525 7.35C73.0825 7.35 73.5575 7.455 73.9775 7.665C74.4075 7.865 74.7475 8.17 74.9975 8.58C75.2475 8.99 75.3725 9.51 75.3725 10.14V15H73.7675V10.635C73.7675 9.895 73.6125 9.385 73.3025 9.105C73.0025 8.815 72.6225 8.67 72.1625 8.67C71.8325 8.67 71.5125 8.75 71.2025 8.91C70.8925 9.06 70.6325 9.305 70.4225 9.645C70.2225 9.985 70.1225 10.44 70.1225 11.01V15H68.5175ZM84.5125 13.62H89.9725V15H82.9075V5.1H84.5125V13.62ZM95.997 10.185C95.997 9.685 95.857 9.3 95.577 9.03C95.307 8.75 94.932 8.61 94.452 8.61C94.002 8.61 93.617 8.715 93.297 8.925C92.977 9.135 92.742 9.475 92.592 9.945L91.242 9.375C91.432 8.765 91.802 8.275 92.352 7.905C92.912 7.535 93.632 7.35 94.512 7.35C95.112 7.35 95.642 7.45 96.102 7.65C96.562 7.84 96.922 8.13 97.182 8.52C97.452 8.91 97.587 9.41 97.587 10.02V13.365C97.587 13.735 97.772 13.92 98.142 13.92C98.322 13.92 98.497 13.895 98.667 13.845L98.577 14.955C98.347 15.065 98.057 15.12 97.707 15.12C97.387 15.12 97.097 15.065 96.837 14.955C96.587 14.835 96.387 14.66 96.237 14.43C96.097 14.19 96.027 13.895 96.027 13.545V13.44L96.357 13.425C96.267 13.815 96.082 14.14 95.802 14.4C95.522 14.65 95.197 14.84 94.827 14.97C94.457 15.09 94.082 15.15 93.702 15.15C93.232 15.15 92.807 15.075 92.427 14.925C92.057 14.775 91.762 14.55 91.542 14.25C91.332 13.94 91.227 13.56 91.227 13.11C91.227 12.55 91.407 12.09 91.767 11.73C92.137 11.37 92.657 11.125 93.327 10.995L96.237 10.425L96.222 11.55L94.107 11.985C93.687 12.065 93.372 12.18 93.162 12.33C92.952 12.48 92.847 12.7 92.847 12.99C92.847 13.27 92.952 13.495 93.162 13.665C93.382 13.825 93.672 13.905 94.032 13.905C94.282 13.905 94.522 13.875 94.752 13.815C94.992 13.755 95.207 13.66 95.397 13.53C95.587 13.39 95.732 13.215 95.832 13.005C95.942 12.785 95.997 12.525 95.997 12.225V10.185ZM104.237 15.15C103.797 15.15 103.392 15.065 103.022 14.895C102.662 14.725 102.357 14.49 102.107 14.19C101.857 13.88 101.672 13.535 101.552 13.155L101.747 12.9L101.627 15H100.217V4.125H101.822V9.39L101.642 9.135C101.832 8.615 102.157 8.19 102.617 7.86C103.077 7.52 103.632 7.35 104.282 7.35C104.882 7.35 105.432 7.505 105.932 7.815C106.442 8.125 106.842 8.57 107.132 9.15C107.422 9.73 107.567 10.435 107.567 11.265C107.567 12.075 107.417 12.77 107.117 13.35C106.827 13.93 106.427 14.375 105.917 14.685C105.417 14.995 104.857 15.15 104.237 15.15ZM103.892 13.86C104.542 13.86 105.047 13.63 105.407 13.17C105.777 12.7 105.962 12.06 105.962 11.25C105.962 10.44 105.782 9.805 105.422 9.345C105.062 8.885 104.557 8.655 103.907 8.655C103.487 8.655 103.122 8.765 102.812 8.985C102.502 9.195 102.257 9.495 102.077 9.885C101.907 10.275 101.822 10.74 101.822 11.28C101.822 11.81 101.907 12.27 102.077 12.66C102.247 13.04 102.487 13.335 102.797 13.545C103.117 13.755 103.482 13.86 103.892 13.86ZM112.471 15.15C111.721 15.15 111.036 15.005 110.416 14.715C109.796 14.425 109.306 14.015 108.946 13.485L110.056 12.525C110.276 12.935 110.591 13.265 111.001 13.515C111.421 13.755 111.921 13.875 112.501 13.875C112.961 13.875 113.326 13.795 113.596 13.635C113.866 13.475 114.001 13.25 114.001 12.96C114.001 12.77 113.936 12.605 113.806 12.465C113.686 12.315 113.451 12.2 113.101 12.12L111.526 11.79C110.726 11.63 110.156 11.375 109.816 11.025C109.476 10.665 109.306 10.21 109.306 9.66C109.306 9.25 109.426 8.87 109.666 8.52C109.906 8.17 110.256 7.89 110.716 7.68C111.186 7.46 111.746 7.35 112.396 7.35C113.146 7.35 113.786 7.485 114.316 7.755C114.846 8.015 115.251 8.39 115.531 8.88L114.421 9.81C114.231 9.41 113.951 9.115 113.581 8.925C113.211 8.725 112.826 8.625 112.426 8.625C112.106 8.625 111.831 8.665 111.601 8.745C111.371 8.825 111.196 8.935 111.076 9.075C110.956 9.215 110.896 9.38 110.896 9.57C110.896 9.77 110.971 9.945 111.121 10.095C111.271 10.245 111.541 10.36 111.931 10.44L113.641 10.8C114.361 10.94 114.866 11.18 115.156 11.52C115.456 11.85 115.606 12.255 115.606 12.735C115.606 13.215 115.481 13.64 115.231 14.01C114.981 14.37 114.621 14.65 114.151 14.85C113.681 15.05 113.121 15.15 112.471 15.15Z" fill="black"/>
<defs>
<clipPath id="clip0_60_204">
<rect width="24" height="21" fill="black"/>
</clipPath>
</defs>
</svg>
